<?xml version="1.0" encoding="UTF-8" standalone="no"?>
<!DOCTYPE svg PUBLIC "-//W3C//DTD SVG 1.1//EN" "http://www.w3.org/Graphics/SVG/1.1/DTD/svg11.dtd">
<svg width="500.00" height="500.00" viewBox="0.00 0.00 500.00 500.00" xmlns="http://www.w3.org/2000/svg" xmlns:xlink="http://www.w3.org/1999/xlink">
<g stroke-linecap="round" id="Layer_4">
<path d="M95.45,385.45 C95.45,385.45 95.34,382.14 95.34,382.14 C93.37,387.67 84.47,424.22 81.09,438.94 C77.55,455.64 71.79,486.54 69.30,500.59 C66.82,516.49 62.00,549.44 59.66,566.49 C58.54,575.45 56.32,593.53 55.22,602.66 C53.68,615.53 52.01,629.45 51.89,630.49" fill="none" stroke="rgb(0, 0, 0)" stroke-width="13.10" stroke-opacity="1.00" stroke-linejoin="round"/>
<path d="M144.55,513.64 C144.55,513.64 144.47,514.55 144.47,514.55 C144.47,514.55 142.02,514.36 142.02,514.36 C141.65,513.13 149.85,473.86 152.55,463.57 C154.65,456.24 159.47,441.23 162.31,433.25 C167.78,419.28 174.11,403.22 174.58,400.91 C177.14,399.74 190.17,390.61 196.70,386.01 C203.99,380.92 207.59,380.88 208.08,381.50 C208.08,381.50 208.18,382.73 208.18,382.73" fill="none" stroke="rgb(0, 0, 0)" stroke-width="13.10" stroke-opacity="1.00" stroke-linejoin="round"/>
<path d="M209.09,384.09 C209.09,384.09 210.91,380.00 210.91,380.00 C209.58,383.96 206.61,388.92 205.27,391.05 C201.20,397.33 195.21,406.13 193.08,408.18 C193.08,408.18 193.64,409.09 193.64,409.09 C191.55,426.88 188.91,443.12 183.38,466.51 C179.86,481.11 174.94,501.91 170.89,525.37 C167.13,549.20 166.05,561.52 165.45,573.50" fill="none" stroke="rgb(0, 0, 0)" stroke-width="13.10" stroke-opacity="1.00" stroke-linejoin="round"/>
<path d="M202.73,383.64 C202.73,383.64 201.82,384.55 201.82,384.55 C201.82,384.55 201.82,383.64 201.82,383.64 C202.68,384.41 208.70,384.81 209.44,385.24 C209.62,385.36 209.81,385.57 210.00,385.87 C210.00,385.87 208.18,384.55 208.18,384.55" fill="none" stroke="rgb(0, 0, 0)" stroke-width="13.10" stroke-opacity="1.00" stroke-linejoin="round"/>
<path d="M298.64,397.27 C298.64,397.27 298.18,397.27 298.18,397.27 C298.18,397.27 297.40,397.27 297.40,397.27 C299.28,398.10 300.28,398.69 301.92,400.00 C307.60,404.46 320.42,414.37 322.15,416.36 C322.47,416.73 322.96,417.33 323.64,418.18 C323.64,418.18 325.38,420.00 325.38,420.00 C325.00,420.00 324.62,420.00 324.23,420.00 C323.75,420.00 323.28,420.00 322.80,420.00" fill="none" stroke="rgb(0, 0, 0)" stroke-width="13.10" stroke-opacity="1.00" stroke-linejoin="round"/>
<path d="M299.09,399.09 C299.09,399.09 299.09,398.73 299.09,398.73 C299.09,398.73 297.33,397.51 297.33,397.51 C297.33,397.51 303.64,419.51 303.64,419.51 C303.38,419.12 302.72,420.09 302.13,421.92 C298.74,432.69 292.19,453.99 287.19,472.45 C283.04,488.85 276.02,520.35 272.65,536.14 C269.92,550.69 266.77,567.62 266.36,570.00 C266.36,570.00 266.36,569.58 266.36,569.58" fill="none" stroke="rgb(0, 0, 0)" stroke-width="13.10" stroke-opacity="1.00" stroke-linejoin="round"/>
<path d="M325.45,419.09 C325.45,419.09 325.45,418.18 325.45,418.18 C326.03,423.06 326.46,427.69 326.18,431.11 C325.90,434.24 323.77,446.88 321.08,457.17 C317.05,471.59 308.53,503.13 305.18,519.64 C303.84,527.20 301.63,539.57 301.61,539.69 C301.51,540.16 301.28,541.24 300.91,542.94 C300.91,542.94 300.91,542.31 300.91,542.31" fill="none" stroke="rgb(0, 0, 0)" stroke-width="13.10" stroke-opacity="1.00" stroke-linejoin="round"/>
<path d="M325.45,427.27 C325.45,427.27 326.36,427.27 326.36,427.27 C328.04,428.61 331.80,429.53 338.66,430.14 C348.45,431.00 359.62,433.31 366.66,434.78 C374.71,436.43 393.52,440.36 396.92,441.29 C399.23,441.93 404.33,443.79 404.55,444.86 C404.57,445.00 404.53,445.21 404.44,445.49 C402.95,448.70 399.61,463.07 398.40,470.13 C397.14,478.11 395.27,492.98 394.41,500.35 C393.63,508.55 392.98,516.83 392.73,518.81 C392.73,518.66 392.73,518.51 392.73,518.36 C392.73,517.93 392.73,517.49 392.73,517.06" fill="none" stroke="rgb(0, 0, 0)" stroke-width="13.10" stroke-opacity="1.00" stroke-linejoin="round"/>
<path d="M406.36,442.73 C406.36,442.73 405.45,441.82 405.45,441.82 C405.45,441.82 404.60,442.68 404.60,442.68 C406.75,447.94 408.96,452.79 411.25,456.09 C414.14,460.17 422.78,469.81 424.44,472.41 C423.28,472.72 421.96,475.50 421.66,478.57 C420.95,485.72 419.56,516.44 419.07,523.82 C418.69,528.51 418.53,529.22 418.04,530.52 C417.77,530.41 417.59,530.27 417.52,530.10 C417.44,529.94 417.36,529.54 417.27,528.88" fill="none" stroke="rgb(0, 0, 0)" stroke-width="13.10" stroke-opacity="1.00" stroke-linejoin="round"/>
<path d="M197.27,407.27 C197.27,407.27 197.35,406.56 197.35,406.56 C197.52,406.14 204.07,408.33 206.99,408.58 C225.88,410.16 253.21,414.23 268.84,416.64 C292.49,420.41 298.89,421.57 300.24,421.82 C299.02,421.93 295.64,422.25 294.83,422.34 C294.30,422.40 293.29,422.53 291.82,422.73" fill="none" stroke="rgb(0, 0, 0)" stroke-width="13.10" stroke-opacity="1.00" stroke-linejoin="round"/>
<path d="M87.27,387.27 C87.27,387.27 86.67,386.43 86.67,386.43 C86.67,386.43 85.89,386.36 85.89,386.36 C88.97,386.65 90.68,386.87 92.46,387.27 C101.97,389.37 137.19,392.86 151.59,394.07 C169.79,395.95 175.85,398.43 177.06,399.37 C175.86,399.53 172.56,399.96 172.03,400.00 C171.68,400.02 171.22,400.02 170.63,400.00" fill="none" stroke="rgb(0, 0, 0)" stroke-width="13.10" stroke-opacity="1.00" stroke-linejoin="round"/>
<path d="M299.09,326.36 C299.09,326.36 300.00,323.78 300.00,323.78 C300.00,323.78 300.64,323.64 300.64,323.64 C299.18,326.18 298.01,331.60 296.78,342.34 C295.83,351.24 294.12,367.98 293.36,375.83 C292.97,380.52 292.78,399.37 292.73,401.08 C292.70,403.05 293.15,404.18 294.83,406.41 C295.76,407.62 296.39,408.53 296.71,409.16 C296.90,409.51 297.03,409.98 297.10,410.56 C297.10,410.56 296.82,410.52 296.82,410.52 C296.82,410.52 296.36,410.00 296.36,410.00" fill="none" stroke="rgb(0, 0, 0)" stroke-width="13.10" stroke-opacity="1.00" stroke-linejoin="round"/>
<path d="M220.91,347.27 C220.91,347.27 220.91,346.43 220.91,346.43 C221.63,346.43 221.83,346.35 221.82,346.41 C221.67,347.15 215.27,385.66 214.90,387.27 C214.90,387.27 215.45,386.36 215.45,386.36 C215.45,386.36 206.03,396.77 206.03,396.77" fill="none" stroke="rgb(0, 0, 0)" stroke-width="13.10" stroke-opacity="1.00" stroke-linejoin="round"/>
<path d="M206.36,401.82 C206.36,401.82 203.84,405.37 203.84,405.37 C207.00,402.48 212.26,390.57 213.46,387.73 C212.45,389.16 210.33,394.86 209.40,396.77 C207.90,399.80 204.55,404.13 200.73,408.71 C200.73,408.71 208.88,389.90 208.88,389.90 C208.88,389.90 200.91,406.36 200.91,406.36 C204.97,400.98 211.38,389.15 214.43,382.52 C216.98,376.97 223.97,357.19 224.93,353.99 C226.24,349.61 227.20,345.28 227.41,344.34" fill="none" stroke="rgb(0, 0, 0)" stroke-width="13.10" stroke-opacity="1.00" stroke-linejoin="round"/>
<path d="M320.00,235.45 C320.00,235.45 321.82,230.95 321.82,230.95 C321.77,231.48 322.57,234.99 322.55,239.37 C322.48,244.66 319.36,258.54 317.70,265.70 C315.96,273.30 311.95,291.21 311.12,294.30 C310.13,297.98 307.70,305.07 307.20,306.78 C306.58,308.96 304.89,315.99 302.84,319.50 C300.96,322.63 297.77,325.68 293.75,328.96 C288.79,332.97 284.36,336.21 282.03,337.49 C279.55,338.82 272.74,341.14 269.51,341.78 C263.07,343.02 255.90,342.71 254.60,342.60" fill="none" stroke="rgb(0, 0, 0)" stroke-width="13.10" stroke-opacity="1.00" stroke-linejoin="round"/>
<path d="M324.55,245.00 C324.55,245.00 324.55,247.07 324.55,247.07 C324.92,244.74 327.46,236.36 328.59,233.66 C329.89,230.57 334.10,223.54 335.81,221.73 C339.07,218.37 347.61,214.27 348.93,214.02 C350.07,213.86 351.61,214.50 352.69,215.60 C353.54,216.50 354.83,218.21 356.94,221.19 C358.48,223.38 358.95,225.14 359.09,225.77 C359.84,229.54 359.79,231.33 358.68,236.19 C356.87,243.90 350.94,259.03 349.23,261.92 C345.14,268.76 339.88,274.74 337.73,276.19 C337.14,276.55 332.12,275.31 328.11,273.57 C326.68,272.94 321.00,270.05 319.98,269.52" fill="none" stroke="rgb(0, 0, 0)" stroke-width="13.10" stroke-opacity="1.00" stroke-linejoin="round"/>
<path d="M254.55,225.00 C254.55,225.00 254.55,225.45 254.55,225.45 C255.78,224.73 261.12,220.94 262.67,220.22 C264.77,219.26 268.25,218.48 270.35,218.49 C271.51,218.52 274.29,219.19 275.61,219.65 C278.36,220.71 283.67,225.77 285.31,228.95 C285.88,230.09 287.83,234.64 288.18,235.45 C288.18,235.45 286.78,232.17 286.78,232.17" fill="none" stroke="rgb(0, 0, 0)" stroke-width="13.10" stroke-opacity="1.00" stroke-linejoin="round"/>
<path d="M272.73,218.78 C269.76,218.08 266.08,217.79 263.15,219.30 C261.41,220.22 253.74,225.23 252.45,225.66 C251.79,225.88 251.10,225.73 250.84,225.52" fill="none" stroke="rgb(0, 0, 0)" stroke-width="13.10" stroke-opacity="1.00" stroke-linejoin="round"/>
<path d="M261.82,234.55 C261.82,234.55 261.82,233.68 261.82,233.68 C261.82,233.68 261.53,233.69 261.53,233.69 C260.16,235.02 259.81,241.56 260.94,242.97 C262.24,244.52 264.23,245.37 264.97,244.93 C266.16,243.09 266.36,238.34 265.49,237.34 C264.49,236.28 262.23,236.97 260.87,238.64 C260.28,239.40 260.38,240.77 260.84,241.50 C261.90,243.00 263.98,243.04 264.90,242.83 C265.54,242.27 265.73,240.26 265.10,238.85 C264.49,237.50 261.90,238.82 261.71,239.58 C261.50,240.49 262.12,241.91 261.29,242.34 C261.09,242.45 260.45,241.85 259.37,240.56 C258.97,240.07 258.58,239.58 258.18,239.09" fill="none" stroke="rgb(0, 0, 0)" stroke-width="13.10" stroke-opacity="1.00" stroke-linejoin="round"/>
<path d="M189.09,227.27 C189.09,227.27 189.09,226.56 189.09,226.56 C188.50,226.40 186.85,226.27 185.87,226.48 C184.23,226.86 182.78,229.00 183.32,230.52 C183.74,231.60 184.43,232.26 185.38,232.48 C186.63,232.74 188.38,229.70 188.08,227.97 C187.98,227.46 187.55,226.71 186.78,225.73 C185.95,225.76 185.15,226.20 184.65,227.13 C183.59,229.20 184.00,231.77 184.44,232.80 C185.92,232.61 186.96,232.06 187.20,230.84 C187.60,228.89 187.27,227.25 186.61,227.03 C186.03,226.79 185.31,227.24 183.57,228.95 C183.36,229.15 183.27,229.22 183.29,229.16 C183.29,229.16 183.64,228.18 183.64,228.18" fill="none" stroke="rgb(0, 0, 0)" stroke-width="13.10" stroke-opacity="1.00" stroke-linejoin="round"/>
<path d="M172.73,204.55 C172.73,204.55 172.73,206.22 172.73,206.22 C175.05,203.07 179.20,198.29 181.61,196.82 C184.77,194.94 190.79,193.48 192.91,194.01 C195.93,194.83 203.07,199.58 205.49,201.82 C207.57,203.77 211.31,208.71 213.64,211.61 C213.08,210.12 210.40,207.19 208.07,205.18 C204.47,202.13 200.88,199.51 198.57,198.50 C195.43,197.17 189.63,195.97 186.50,196.12 C180.38,196.47 175.74,199.70 173.64,201.75" fill="none" stroke="rgb(0, 0, 0)" stroke-width="13.10" stroke-opacity="1.00" stroke-linejoin="round"/>
<path d="M274.55,280.00 C274.55,280.00 274.06,280.00 274.06,280.00 C274.32,279.07 274.52,278.44 274.68,278.10 C275.31,276.87 277.83,274.75 279.12,274.80 C280.64,274.90 283.00,276.70 284.06,278.26 C285.22,280.12 285.90,281.63 286.05,282.80 C286.18,284.07 285.61,286.59 284.97,287.83 C284.29,289.05 282.61,290.87 281.61,291.40 C280.65,291.87 277.99,292.21 276.78,292.03 C275.36,291.77 273.16,290.49 271.99,289.20 C269.86,286.75 268.54,280.53 268.71,278.29 C268.86,276.65 270.20,271.65 271.40,269.37 C272.99,266.43 276.44,262.36 279.71,260.16 C281.11,259.23 284.43,257.28 285.95,256.41 C287.80,255.34 288.56,255.02 289.69,254.76 C289.17,255.33 288.83,255.70 288.67,255.87 C288.51,256.05 288.30,256.26 288.04,256.50" fill="none" stroke="rgb(0, 0, 0)" stroke-width="13.10" stroke-opacity="1.00" stroke-linejoin="round"/>
<path d="M303.64,261.36 C303.64,261.36 303.64,260.00 303.64,260.00 C302.53,259.14 297.88,261.21 295.80,263.60 C294.58,265.07 293.54,268.19 293.36,270.63 C293.25,272.69 295.26,279.41 296.99,280.49 C297.97,281.04 299.78,280.26 300.98,278.88 C303.11,276.31 305.77,270.43 306.37,267.36 C306.91,264.57 307.30,261.94 307.27,261.99 C305.67,267.50 302.82,277.53 300.87,288.32 C300.14,292.53 298.90,299.63 298.18,302.52 C298.20,302.12 298.20,301.84 298.18,301.68 C298.17,301.51 298.12,301.23 298.04,300.84" fill="none" stroke="rgb(0, 0, 0)" stroke-width="13.10" stroke-opacity="1.00" stroke-linejoin="round"/>
<path d="M164.55,241.82 C164.55,241.82 164.31,238.77 164.31,238.77 C163.02,238.19 160.92,238.36 158.86,239.47 C156.95,240.50 151.81,245.08 150.91,246.75 C149.70,249.12 148.79,253.45 149.06,256.40 C149.40,259.69 151.66,265.61 153.64,268.04 C155.61,270.38 161.17,273.39 163.67,273.32 C164.50,273.28 168.21,272.30 168.92,271.92 C170.99,270.74 175.37,264.28 176.21,261.47 C177.12,258.24 177.19,251.32 176.05,248.35 C175.41,246.78 173.82,244.24 172.74,243.08 C171.49,241.82 169.07,240.42 167.22,239.90 C163.91,239.05 156.92,240.01 153.57,241.56 C150.95,242.81 147.73,245.24 146.29,247.34" fill="none" stroke="rgb(0, 0, 0)" stroke-width="13.10" stroke-opacity="1.00" stroke-linejoin="round"/>
<path d="M146.36,268.64 C146.36,268.64 146.36,266.36 146.36,266.36 C146.15,266.54 156.06,260.59 160.91,255.49 C160.91,255.49 141.85,268.99 141.85,268.99 C141.85,268.99 144.55,266.36 144.55,266.36" fill="none" stroke="rgb(0, 0, 0)" stroke-width="13.10" stroke-opacity="1.00" stroke-linejoin="round"/>
<path d="M142.73,259.09 C142.73,259.09 143.64,258.18 143.64,258.18 C142.46,260.77 141.89,262.41 141.39,264.83 C140.97,266.85 140.28,270.23 140.00,271.57 C140.00,271.57 141.82,257.27 141.82,257.27 C141.82,257.27 141.08,259.09 141.08,259.09 C141.06,259.89 140.16,262.14 140.00,263.08 C139.81,264.17 139.47,267.07 138.36,268.18 C139.88,271.84 146.70,273.36 149.06,273.64 C147.68,273.72 146.02,273.01 144.48,271.50 C143.96,271.00 142.43,269.00 141.68,268.04" fill="none" stroke="rgb(0, 0, 0)" stroke-width="13.10" stroke-opacity="1.00" stroke-linejoin="round"/>
<path d="M159.09,183.64 C159.01,181.05 159.59,178.99 159.71,178.27 C159.80,177.77 159.90,176.60 160.00,174.74 C157.78,180.10 153.03,193.00 150.36,200.26 C147.62,208.12 142.30,223.93 139.85,232.04 C136.05,246.33 129.57,271.04 129.41,272.31 C129.22,273.72 127.78,289.06 128.46,295.02 C128.82,297.89 130.53,302.16 132.88,305.26 C138.48,312.47 143.96,318.38 150.87,324.77 C155.63,329.12 168.88,337.71 173.71,339.89 C176.25,341.03 183.40,343.65 186.56,344.59 C192.33,346.27 204.73,347.30 205.59,347.27" fill="none" stroke="rgb(0, 0, 0)" stroke-width="13.10" stroke-opacity="1.00" stroke-linejoin="round"/>
<path d="M165.45,338.64 C165.45,338.64 164.55,339.09 164.55,339.09 C165.00,338.51 165.79,338.02 166.20,338.30 C166.57,338.55 166.85,339.54 166.78,339.83 C165.90,339.48 160.36,335.61 157.10,333.33 C149.92,328.16 140.92,319.20 136.21,313.43 C134.74,311.62 129.05,304.11 128.53,303.36 C126.76,300.76 124.33,296.09 124.54,294.40 C124.54,294.40 129.14,276.10 131.15,268.04 C133.27,259.74 137.47,243.45 139.55,235.46 C140.28,232.66 141.27,228.87 141.53,227.88" fill="none" stroke="rgb(0, 0, 0)" stroke-width="13.10" stroke-opacity="1.00" stroke-linejoin="round"/>
<path d="M155.45,333.64 C155.45,333.64 154.55,332.73 154.55,332.73 C157.36,333.69 159.19,334.59 161.49,336.24 C165.31,338.96 168.94,341.14 171.49,342.24 C176.54,344.37 185.93,345.52 186.50,345.70 C187.26,345.94 187.82,346.31 188.18,346.78 C188.28,346.93 188.28,347.14 188.18,347.41" fill="none" stroke="rgb(0, 0, 0)" stroke-width="13.10" stroke-opacity="1.00" stroke-linejoin="round"/>
<path d="M177.27,344.55 C177.27,344.55 176.36,344.55 176.36,344.55 C177.64,343.62 178.47,343.25 179.54,343.36 C185.91,344.20 195.76,345.34 205.35,345.45 C213.44,345.42 226.29,343.67 230.80,343.64 C231.24,343.64 231.67,343.64 232.10,343.64 C232.10,343.64 231.68,343.64 231.68,343.64" fill="none" stroke="rgb(0, 0, 0)" stroke-width="13.10" stroke-opacity="1.00" stroke-linejoin="round"/>
<path d="M172.73,343.64 C173.04,343.48 173.78,343.06 174.17,343.06 C175.31,343.08 188.87,345.86 197.41,346.29 C200.94,346.47 222.76,346.79 225.32,346.52 C227.00,346.33 231.11,345.02 232.03,344.72 C232.03,344.72 231.75,344.62 231.75,344.62" fill="none" stroke="rgb(0, 0, 0)" stroke-width="13.10" stroke-opacity="1.00" stroke-linejoin="round"/>
<path d="M150.91,204.09 C150.19,205.15 150.09,206.25 149.92,206.56 C149.84,206.70 149.57,206.94 149.09,207.27 C150.31,207.36 162.24,195.71 168.03,188.83 C169.39,187.21 169.70,186.81 170.00,186.36 C167.76,186.93 162.30,190.94 159.41,192.70 C157.72,193.73 156.58,194.23 155.45,194.55 C155.45,194.55 175.45,164.55 175.45,164.55 C175.45,164.55 174.55,165.45 174.55,165.45 C171.16,168.43 168.71,169.42 165.20,170.33 C163.41,170.78 159.46,171.77 159.20,171.82 C159.00,171.85 158.92,171.83 158.95,171.75" fill="none" stroke="rgb(0, 0, 0)" stroke-width="13.10" stroke-opacity="1.00" stroke-linejoin="round"/>
<path d="M151.82,161.82 C151.82,161.82 152.73,160.91 152.73,160.91 C150.92,164.07 144.67,176.12 141.02,182.86 C137.50,189.24 129.15,204.85 126.91,209.68 C120.21,224.21 110.95,251.13 106.25,265.09 C98.50,288.38 94.73,302.50 88.92,319.93 C86.82,327.06 82.02,344.11 81.19,346.26 C79.86,349.63 78.49,352.31 78.25,352.66" fill="none" stroke="rgb(0, 0, 0)" stroke-width="13.10" stroke-opacity="1.00" stroke-linejoin="round"/>
<path d="M79.09,346.36 C79.09,346.36 78.98,346.36 78.98,346.36 C78.98,346.36 78.18,344.78 78.18,344.78 C78.46,346.80 78.67,347.91 79.14,349.75 C80.16,353.67 82.23,358.37 84.57,361.97 C88.48,367.79 99.32,382.27 99.37,382.34 C99.59,382.70 100.03,383.52 100.70,384.79 C100.70,384.79 100.45,384.97 100.45,384.97 C100.45,384.97 100.00,384.55 100.00,384.55" fill="none" stroke="rgb(0, 0, 0)" stroke-width="13.10" stroke-opacity="1.00" stroke-linejoin="round"/>
<path d="M108.18,388.18 C108.63,387.94 109.32,387.39 109.09,387.27 C108.66,387.04 107.27,386.89 106.55,385.89 C105.61,384.57 92.70,365.85 91.21,363.51 C89.62,360.99 88.56,357.86 88.18,356.61 C88.18,356.61 88.18,358.18 88.18,358.18 C88.63,358.09 93.37,341.29 95.59,333.51 C97.92,326.10 104.94,305.06 105.28,303.08 C104.65,303.18 104.54,305.91 104.51,307.03 C104.50,307.44 103.90,314.39 103.89,318.03 C104.24,333.81 105.35,375.03 106.10,381.21 C106.48,384.18 107.71,390.69 108.08,391.68 C107.89,391.02 107.75,390.60 107.66,390.42 C107.56,390.24 107.39,390.05 107.13,389.86" fill="none" stroke="rgb(0, 0, 0)" stroke-width="13.10" stroke-opacity="1.00" stroke-linejoin="round"/>
<path d="M163.64,172.27 C163.64,172.27 162.79,173.08 162.79,173.08 C162.79,173.08 163.04,173.36 163.04,173.36 C164.33,172.59 181.96,159.91 185.56,157.52 C192.76,152.75 196.18,151.70 196.47,151.92 C196.47,151.92 195.63,152.73 195.63,152.73 C195.63,152.73 195.31,152.66 195.31,152.66" fill="none" stroke="rgb(0, 0, 0)" stroke-width="13.10" stroke-opacity="1.00" stroke-linejoin="round"/>
<path d="M187.27,153.64 C187.27,153.64 187.41,152.56 187.41,152.56 C187.47,151.58 216.22,188.57 220.93,194.48 C223.38,197.50 228.70,203.92 229.21,204.60 C230.15,205.82 230.76,206.24 231.82,206.36 C232.22,206.40 252.48,205.59 260.38,205.20 C272.03,204.53 277.33,203.92 285.64,202.35 C292.01,201.14 305.35,195.94 312.78,192.81 C322.15,188.68 330.20,184.19 332.66,182.80" fill="none" stroke="rgb(0, 0, 0)" stroke-width="13.10" stroke-opacity="1.00" stroke-linejoin="round"/>
<path d="M273.64,196.36 C273.64,196.20 273.64,196.04 273.64,195.88 C273.64,195.88 273.64,195.88 273.64,195.88 C274.07,196.71 275.83,197.44 278.02,197.53 C286.20,197.29 302.96,198.89 307.50,198.24 C308.79,198.05 310.19,197.42 310.80,197.03 C310.80,197.03 310.73,196.99 310.73,196.99 C310.73,196.99 309.86,197.48 309.86,197.48" fill="none" stroke="rgb(0, 0, 0)" stroke-width="13.10" stroke-opacity="1.00" stroke-linejoin="round"/>
<path d="M283.18,195.00 C283.18,195.00 282.73,195.45 282.73,195.45 C282.73,195.45 282.08,195.45 282.08,195.45 C285.10,195.27 288.70,194.87 293.33,194.12 C297.29,193.46 304.98,192.11 308.71,191.43 C310.83,191.08 311.78,190.67 313.22,189.62 C311.01,190.09 309.95,189.94 308.46,188.78 C306.08,186.94 271.00,165.70 259.30,156.82 C253.55,152.31 241.45,142.19 235.85,136.97 C230.53,131.85 220.03,121.39 214.86,116.29 C208.58,110.36 195.22,98.48 192.58,96.57 C191.85,96.04 189.35,94.39 188.32,93.71" fill="none" stroke="rgb(0, 0, 0)" stroke-width="13.10" stroke-opacity="1.00" stroke-linejoin="round"/>
<path d="M165.45,150.91 C165.45,150.91 162.34,156.13 162.34,156.13 C165.74,150.95 172.67,140.36 176.20,134.95 C180.47,128.45 198.31,106.00 201.08,102.55 C200.38,103.38 199.76,104.54 199.44,104.86 C198.68,105.61 197.25,106.27 196.43,106.36" fill="none" stroke="rgb(0, 0, 0)" stroke-width="13.10" stroke-opacity="1.00" stroke-linejoin="round"/>
<path d="M164.55,165.45 C164.52,167.08 164.52,168.17 164.55,168.73 C164.57,169.28 164.65,170.07 164.78,171.09 C165.75,169.58 166.19,168.43 166.15,166.97 C166.06,164.09 163.74,144.16 164.28,137.13 C164.33,136.56 164.41,135.70 164.55,134.55 C164.55,134.55 192.90,93.85 192.90,93.85 C192.10,93.77 191.54,94.03 190.02,95.48 C187.42,97.94 173.85,110.10 169.39,114.29 C164.58,118.89 146.21,141.29 145.45,142.73 C145.25,143.62 146.35,149.31 148.50,153.81 C149.53,155.93 153.61,162.15 156.47,165.31 C157.18,166.09 159.00,168.03 159.48,168.74 C159.48,168.74 159.34,169.06 159.34,169.06 C159.34,169.06 159.02,169.09 159.02,169.09" fill="none" stroke="rgb(0, 0, 0)" stroke-width="13.10" stroke-opacity="1.00" stroke-linejoin="round"/>
<path d="M213.64,106.36 C213.64,106.36 211.06,106.36 211.06,106.36 C218.18,100.83 229.09,94.48 235.45,91.68 C248.47,85.98 269.66,80.47 275.29,79.59 C277.20,79.30 278.79,79.72 279.27,79.90 C282.02,80.99 316.66,98.86 327.54,107.45 C332.12,111.09 345.23,123.20 347.46,126.97 C348.17,128.18 348.34,129.19 348.18,130.00" fill="none" stroke="rgb(0, 0, 0)" stroke-width="13.10" stroke-opacity="1.00" stroke-linejoin="round"/>
<path d="M342.73,121.36 C342.73,121.36 342.73,118.20 342.73,118.20 C344.53,121.23 347.52,126.50 349.25,129.53 C353.22,136.54 359.50,147.63 361.82,151.71 C360.34,149.98 353.42,135.64 348.84,128.49 C346.76,125.32 343.24,119.97 342.41,118.88 C342.41,118.88 365.35,153.43 365.35,153.43 C364.20,152.52 361.32,150.25 359.60,148.89 C358.35,147.91 356.65,146.58 355.80,145.94" fill="none" stroke="rgb(0, 0, 0)" stroke-width="13.10" stroke-opacity="1.00" stroke-linejoin="round"/>
<path d="M216.36,115.45 C216.36,115.45 214.92,114.55 214.92,114.55 C221.62,112.80 235.73,109.30 241.38,108.58 C247.98,107.76 264.67,108.36 270.25,109.31 C274.17,110.01 279.25,112.25 280.73,114.37 C281.78,116.26 282.96,118.33 286.36,122.04 C288.75,124.63 299.87,138.71 304.49,144.65 C308.79,150.26 316.59,160.36 319.58,163.15" fill="none" stroke="rgb(0, 0, 0)" stroke-width="13.10" stroke-opacity="1.00" stroke-linejoin="round"/>
<path d="M229.09,126.82 C229.09,126.82 229.09,126.61 229.09,126.61 C229.09,126.61 228.18,127.27 228.18,127.27 C229.12,127.15 234.83,125.64 237.03,125.70 C240.41,125.82 262.43,129.39 263.88,130.00 C264.29,130.19 295.82,167.91 299.41,171.45 C299.81,171.84 300.20,172.23 300.59,172.62 C299.92,172.98 299.48,173.28 299.27,173.50 C298.89,173.88 298.24,175.20 298.18,175.38" fill="none" stroke="rgb(0, 0, 0)" stroke-width="13.10" stroke-opacity="1.00" stroke-linejoin="round"/>
<path d="M280.91,200.00 C280.91,200.00 280.67,199.13 280.67,199.13 C280.67,199.13 280.01,199.09 280.01,199.09 C282.87,199.55 296.10,207.63 300.47,210.01 C303.21,211.49 309.26,214.39 313.20,216.09 C318.58,218.39 322.94,219.68 323.64,220.00 C321.67,219.80 320.44,219.67 319.97,219.62 C319.40,219.54 318.05,219.26 317.20,219.09" fill="none" stroke="rgb(0, 0, 0)" stroke-width="13.10" stroke-opacity="1.00" stroke-linejoin="round"/>
<path d="M294.55,168.18 C294.67,167.41 297.41,167.73 302.62,169.47 C309.80,171.84 313.73,172.85 317.94,172.73 C315.14,174.89 311.27,177.24 308.99,178.01 C306.93,178.68 305.53,178.87 305.49,178.57 C305.49,178.57 305.45,178.04 305.45,178.04" fill="none" stroke="rgb(0, 0, 0)" stroke-width="13.10" stroke-opacity="1.00" stroke-linejoin="round"/>
<path d="M311.82,195.45 C311.34,194.99 311.06,194.68 310.97,194.50 C310.88,194.32 310.86,194.03 310.91,193.64 C310.96,194.23 311.28,194.89 312.57,196.86 C317.08,203.79 324.13,214.65 325.17,216.85 C325.17,216.85 324.72,217.55 324.72,217.55 C324.72,217.55 320.63,216.22 320.63,216.22" fill="none" stroke="rgb(0, 0, 0)" stroke-width="13.10" stroke-opacity="1.00" stroke-linejoin="round"/>
<path d="M180.91,162.73 C180.91,162.73 178.42,164.48 178.42,164.48 C179.70,163.62 181.12,163.05 182.78,162.97 C186.15,162.81 193.78,164.87 195.03,165.17 C199.01,166.13 201.23,166.40 201.54,166.36 C201.47,166.36 201.40,166.36 201.33,166.36 C201.07,166.36 200.82,166.36 200.56,166.36" fill="none" stroke="rgb(0, 0, 0)" stroke-width="13.10" stroke-opacity="1.00" stroke-linejoin="round"/>
<path d="M361.82,154.55 C361.82,153.51 361.82,152.47 361.82,151.43 C361.82,150.99 361.83,150.51 361.86,150.01 C362.90,150.41 363.46,154.14 363.55,159.53 C363.60,189.69 363.89,240.79 364.63,248.16 C365.32,254.90 369.85,275.66 370.03,277.27 C373.72,278.90 377.65,281.86 380.00,284.12 C384.70,288.73 393.48,297.25 394.48,297.69 C394.38,297.22 389.64,296.46 386.80,296.09 C383.02,295.31 375.49,291.24 371.79,289.20 C368.03,287.14 363.72,285.76 360.77,285.45" fill="none" stroke="rgb(0, 0, 0)" stroke-width="13.10" stroke-opacity="1.00" stroke-linejoin="round"/>
<path d="M365.45,286.36 C365.45,285.64 365.45,284.92 365.45,284.19 C365.45,284.01 365.45,283.82 365.45,283.64 C365.04,284.24 364.81,285.11 364.80,286.59 C364.80,289.09 365.22,296.95 365.16,299.06 C365.04,303.35 362.83,321.87 361.74,329.89 C359.28,344.82 354.02,377.01 353.74,381.99 C353.72,382.45 353.68,383.55 353.64,385.28 C353.64,385.28 353.50,385.45 353.50,385.45" fill="none" stroke="rgb(0, 0, 0)" stroke-width="13.10" stroke-opacity="1.00" stroke-linejoin="round"/>
<path d="M354.55,379.09 C353.84,380.31 353.35,381.12 353.08,381.50 C352.84,381.84 337.31,399.67 331.44,406.43 C328.98,409.27 326.34,413.49 326.50,412.97 C326.85,411.93 327.39,410.96 327.76,409.93 C327.95,409.43 328.09,408.85 328.18,408.18" fill="none" stroke="rgb(0, 0, 0)" stroke-width="13.10" stroke-opacity="1.00" stroke-linejoin="round"/>
<path d="M328.18,414.55 C328.18,414.55 328.24,414.25 328.24,414.25 C328.24,414.25 329.09,413.64 329.09,413.64 C329.09,413.64 330.91,426.36 330.91,426.36 C330.91,426.36 323.64,405.52 323.64,405.52" fill="none" stroke="rgb(0, 0, 0)" stroke-width="13.10" stroke-opacity="1.00" stroke-linejoin="round"/>
<path d="M351.36,284.09 C351.36,284.09 353.24,281.31 353.24,281.31 C353.24,281.31 353.61,281.41 353.61,281.41 C352.92,284.56 351.75,290.22 351.26,292.73 C348.42,308.14 342.70,339.51 339.82,355.47 C338.23,363.76 334.95,380.40 333.27,388.75 C331.91,395.16 329.70,405.53 327.90,411.75" fill="none" stroke="rgb(0, 0, 0)" stroke-width="13.10" stroke-opacity="1.00" stroke-linejoin="round"/>
<path d="M309.09,392.27 C309.09,392.27 309.33,394.11 309.33,394.11 C309.82,393.97 310.36,390.90 310.71,387.19 C311.95,370.97 314.14,340.97 315.10,327.20" fill="none" stroke="rgb(0, 0, 0)" stroke-width="13.10" stroke-opacity="1.00" stroke-linejoin="round"/>
<path d="M137.73,340.91 C137.73,340.91 137.27,340.91 137.27,340.91 C137.27,340.91 138.03,340.91 138.03,340.91" fill="none" stroke="rgb(0, 0, 0)" stroke-width="13.10" stroke-opacity="1.00" stroke-linejoin="round"/>
<path d="M131.82,325.91 C131.82,325.91 131.67,325.55 131.67,325.55 C131.67,325.55 130.96,325.55 130.96,325.55 C131.56,327.95 132.92,333.34 133.68,336.33 C135.31,342.73 138.95,360.51 140.42,368.23 C141.78,376.24 143.80,388.70 144.48,393.15" fill="none" stroke="rgb(0, 0, 0)" stroke-width="13.10" stroke-opacity="1.00" stroke-linejoin="round"/>
<path d="M197.27,386.36 C197.27,386.36 197.27,386.85 197.27,386.85 C197.27,386.85 196.61,387.27 196.61,387.27 C196.26,387.22 196.07,385.35 195.84,380.16 C195.23,364.93 194.15,341.89 193.01,333.43" fill="none" stroke="rgb(0, 0, 0)" stroke-width="13.10" stroke-opacity="1.00" stroke-linejoin="round"/>
<path d="M180.91,393.64 C180.91,393.64 180.67,395.69 180.67,395.69 C180.71,393.23 180.80,391.30 180.87,390.08 C181.27,376.95 179.04,354.74 178.67,351.12" fill="none" stroke="rgb(0, 0, 0)" stroke-width="13.10" stroke-opacity="1.00" stroke-linejoin="round"/>
<path d="M270.10,230.43 C269.87,230.58 268.48,230.96 267.58,230.78 C266.62,230.58 263.55,229.21 263.13,229.07 C261.44,228.53 254.31,230.26 253.87,230.09 C253.87,230.09 271.95,218.52 271.95,218.52 C267.53,223.58 251.90,227.81 251.43,227.81 C251.96,227.50 258.82,224.90 261.56,223.46 C265.67,221.22 268.49,219.48 268.82,219.08 C268.82,219.08 257.55,222.90 257.55,222.90 C257.55,222.90 267.03,218.92 267.03,218.92 C267.03,218.92 258.34,220.89 258.34,220.89 C261.70,221.56 266.47,219.09 266.97,218.77 C266.97,218.77 257.33,221.58 257.33,221.58 C257.80,222.67 261.53,224.12 263.81,223.58 C266.25,222.96 267.86,221.36 268.33,220.64 C268.33,220.64 266.82,220.21 266.82,220.21 C266.82,220.21 272.97,219.17 272.97,219.17 C271.02,219.02 253.15,224.17 252.22,224.62 C252.08,224.68 252.03,224.75 252.05,224.81 C253.72,225.37 264.85,223.30 269.36,221.50 C271.58,220.60 275.51,218.40 276.61,217.38 C276.61,217.38 261.62,221.14 261.62,221.14 C270.01,220.27 273.50,218.74 274.13,218.27 C274.13,218.27 268.24,216.20 268.24,216.20 C267.80,218.22 289.37,236.72 289.68,236.41 C277.53,225.34 274.36,220.55 273.69,219.37 C273.69,219.37 289.48,238.72 289.48,238.72 C289.48,238.72 277.42,221.17 277.42,221.17 C277.42,221.17 290.26,234.30 290.26,234.30 C290.26,234.30 279.48,218.71 279.48,218.71 C279.48,218.71 290.07,231.69 290.07,231.69 C290.07,231.69 282.04,221.63 282.04,221.63 C282.04,221.63 291.12,233.41 291.12,233.41 C290.44,234.01 287.40,232.51 286.53,231.69 C286.39,231.56 286.26,231.42 286.15,231.25 C286.22,231.43 286.28,231.57 286.33,231.67 C286.37,231.77 286.47,231.96 286.63,232.26" fill="none" stroke="rgb(255, 255, 255)" stroke-width="6.80" stroke-opacity="1.00" stroke-linejoin="round"/>
<path d="M288.58,235.84 C289.08,236.66 289.90,237.98 290.07,238.22 C290.12,238.28 290.19,238.37 290.29,238.49 C290.26,238.53 284.81,232.48 282.51,230.31 C278.15,226.24 261.92,214.06 260.98,213.52 C259.35,212.60 257.97,212.43 257.05,212.87 C256.69,213.75 256.63,214.73 257.04,215.41 C257.84,216.70 260.21,216.51 261.16,215.46 C261.26,215.14 261.12,214.22 260.66,212.58 C260.56,212.23 260.36,211.58 260.08,210.64" fill="none" stroke="rgb(255, 255, 255)" stroke-width="6.80" stroke-opacity="1.00" stroke-linejoin="round"/>
<path d="M210.74,205.48 C210.74,205.48 218.24,213.57 218.24,213.57 C218.23,213.47 209.64,205.87 208.09,204.27 C203.46,199.46 200.75,195.21 200.40,194.28 C200.40,194.28 220.25,215.31 220.25,215.31 C220.25,215.31 202.15,196.38 202.15,196.38 C202.15,196.38 218.51,214.33 218.51,214.33 C218.52,214.63 203.54,200.32 201.57,198.79 C199.27,197.00 197.89,196.08 197.70,196.18 C198.43,200.35 211.08,212.48 211.93,213.19 C209.38,208.71 193.53,195.20 192.20,194.08 C192.20,194.08 210.41,214.45 210.41,214.45 C210.41,214.45 194.42,197.16 194.42,197.16 C194.42,197.16 206.84,203.81 206.84,203.81 C206.84,203.81 193.93,192.35 193.93,192.35 C193.93,192.35 203.43,198.52 203.43,198.52 C203.43,198.52 193.50,193.08 193.50,193.08 C193.57,194.38 197.42,198.71 199.00,200.24 C202.38,203.48 204.25,204.57 204.66,204.63 C203.64,202.93 193.69,195.58 190.97,194.55 C189.02,193.83 187.62,193.87 186.75,194.55 C186.53,195.90 186.65,197.58 187.25,198.84 C187.80,199.94 189.72,202.06 190.46,202.35 C191.84,202.86 192.97,201.15 192.90,200.44 C192.75,199.36 191.92,197.55 191.11,196.81 C190.29,196.09 188.31,195.49 187.32,195.62 C186.32,195.77 185.43,196.51 184.84,197.45 C184.84,197.45 185.00,198.61 185.00,198.61 C185.31,199.19 187.95,199.03 189.57,197.47 C190.42,196.63 190.88,195.41 190.92,194.39 C190.46,193.68 188.03,193.33 185.52,194.43 C182.55,195.76 180.76,197.82 180.29,198.72 C182.13,199.47 186.22,197.19 186.45,196.92 C185.56,196.28 176.17,200.32 175.29,201.83 C176.79,202.48 178.06,202.58 179.36,201.90 C182.01,200.49 183.21,198.13 183.47,196.92 C183.47,196.92 182.83,196.04 182.83,196.04 C180.76,196.34 175.87,200.27 174.25,202.98 C173.60,204.11 173.28,205.39 173.39,205.76 C173.99,206.19 174.93,205.98 176.10,204.91 C178.30,202.84 180.75,198.15 180.22,197.27 C176.07,198.98 172.33,206.68 172.58,207.56 C173.73,207.66 174.70,207.31 175.76,206.25 C177.61,204.37 178.03,203.07 177.90,202.73 C177.90,202.73 175.54,204.80 175.54,204.80 C177.68,204.91 181.08,197.50 181.24,196.77 C181.24,196.77 178.81,195.64 178.81,195.64" fill="none" stroke="rgb(255, 255, 255)" stroke-width="6.80" stroke-opacity="1.00" stroke-linejoin="round"/>
<path d="M186.03,231.86 C186.03,231.86 184.45,233.07 184.45,233.07 C184.45,233.07 184.15,232.88 184.15,232.88 C184.15,232.88 185.14,219.17 185.14,219.17 C185.14,219.17 184.50,235.35 184.50,235.35 C185.24,235.36 186.38,230.92 186.69,228.36 C187.27,223.45 187.40,220.78 187.33,220.34 C187.33,220.34 186.95,232.56 186.95,232.56 C186.95,232.56 188.83,223.55 188.83,223.55 C188.83,223.55 188.96,236.39 188.96,236.39 C188.96,236.39 186.08,221.79 186.08,221.79 C185.28,221.68 184.63,222.72 184.21,225.11 C184.10,225.75 183.25,233.92 182.98,236.61 C182.98,236.61 180.88,219.68 180.88,219.68 C180.88,219.68 181.37,221.15 181.37,221.15 C182.93,220.97 185.42,218.48 186.18,217.53 C186.36,217.29 186.61,216.95 186.91,216.49" fill="none" stroke="rgb(255, 255, 255)" stroke-width="6.80" stroke-opacity="1.00" stroke-linejoin="round"/>
<path d="M267.54,244.48 C267.54,244.48 267.63,244.50 267.63,244.50 C267.35,242.65 267.15,241.46 266.76,239.60 C265.92,235.60 263.90,232.08 262.77,231.42 C262.57,231.32 262.37,231.22 262.17,231.12 C261.96,230.77 260.57,235.48 258.66,242.87 C257.48,247.46 257.48,249.04 257.70,250.23 C257.70,250.23 263.39,238.78 263.39,238.78 C264.08,239.32 264.12,240.57 263.40,243.73 C262.96,245.66 262.37,248.27 262.22,249.10 C262.22,249.10 269.17,229.73 269.17,229.73 C269.17,229.73 266.32,247.27 266.32,247.27 C267.57,246.65 269.47,240.66 270.11,238.57 C270.79,236.31 270.96,235.77 271.00,235.80 C271.00,235.80 268.33,247.08 268.33,247.08 C268.33,247.08 270.60,236.45 270.60,236.45 C270.60,236.45 266.69,250.40 266.69,250.40 C266.68,250.42 267.16,246.31 267.11,243.43 C266.89,236.28 265.13,232.45 264.98,232.57 C264.98,232.57 265.40,239.52 265.40,239.52 C265.64,235.67 265.49,232.17 265.54,231.67 C265.59,231.14 265.98,229.38 265.97,229.08 C265.94,228.63 265.69,226.65 265.59,225.90" fill="none" stroke="rgb(255, 255, 255)" stroke-width="6.80" stroke-opacity="1.00" stroke-linejoin="round"/>
</g>
</svg>
