<?xml version="1.0" standalone="no"?>
<!DOCTYPE svg PUBLIC "-//W3C//DTD SVG 20010904//EN"
 "http://www.w3.org/TR/2001/REC-SVG-20010904/DTD/svg10.dtd">
<svg version="1.0" xmlns="http://www.w3.org/2000/svg"
 width="500.000000pt" height="500.000000pt" viewBox="0 0 500.000000 500.000000"
 preserveAspectRatio="xMidYMid meet">
<metadata>
Created by potrace 1.16, written by Peter Selinger 2001-2019
</metadata>
<g transform="translate(0.000000,500.000000) scale(0.100000,-0.100000)"
fill="#000000" stroke="none">
<path d="M1689 4847 c-19 -23 -45 -57 -58 -74 -12 -18 -28 -33 -34 -33 -7 0
-21 -17 -32 -37 -21 -38 -41 -65 -150 -198 -123 -150 -205 -260 -225 -300 -26
-52 -80 -133 -80 -120 -1 6 -10 -14 -20 -44 -11 -30 -17 -57 -14 -60 4 -3 9 0
11 7 10 26 32 11 38 -25 4 -21 14 -64 22 -96 13 -49 14 -72 5 -140 -7 -45 -14
-108 -18 -140 l-6 -58 -40 63 c-112 176 -160 226 -230 246 -46 12 -264 0 -296
-17 -12 -6 -40 -35 -61 -64 -105 -139 -139 -294 -107 -485 28 -161 69 -265
196 -489 l58 -101 -45 -89 c-25 -48 -54 -97 -63 -108 -25 -28 -86 -142 -105
-195 -9 -25 -32 -79 -51 -120 -38 -80 -39 -82 -77 -175 -14 -33 -38 -92 -55
-131 -33 -79 -104 -290 -126 -373 -12 -47 -12 -61 1 -105 8 -28 19 -55 23 -61
4 -5 25 -50 45 -100 21 -49 53 -122 72 -162 18 -39 43 -106 54 -150 11 -43 27
-93 36 -111 15 -32 15 -32 -42 -117 -31 -46 -74 -99 -96 -116 -44 -35 -52 -69
-16 -69 13 0 61 33 121 83 l98 84 38 -71 37 -71 -25 -65 c-13 -36 -37 -100
-52 -143 -15 -43 -35 -86 -44 -96 -40 -44 -7 -41 43 4 21 19 69 58 107 85 l69
50 7 -42 c3 -24 7 -105 7 -180 l1 -138 30 0 30 0 1 148 c1 177 17 154 21 -30
l3 -118 1883 0 1882 0 0 98 c0 134 11 252 23 252 12 0 105 -69 164 -122 41
-37 63 -47 63 -30 0 5 -9 17 -20 27 -11 10 -20 25 -20 34 -1 9 -23 72 -49 140
l-49 124 37 68 c20 38 38 69 41 69 3 0 48 -36 100 -80 57 -48 104 -80 118 -80
35 0 27 34 -17 69 -22 17 -65 70 -96 117 -56 85 -56 86 -41 117 8 18 23 66 34
108 11 42 36 109 55 150 18 41 43 97 55 125 12 28 34 80 50 115 53 115 54 123
32 202 -35 129 -99 317 -139 405 -22 48 -49 114 -62 147 -12 33 -33 78 -45
100 -13 22 -35 72 -49 110 -29 78 -87 189 -115 220 -10 11 -38 60 -62 109
l-45 90 57 100 c124 219 167 325 195 480 36 203 -1 361 -118 509 -39 51 -60
58 -196 67 -129 10 -163 3 -225 -45 -50 -38 -174 -229 -234 -358 l-47 -104
-47 32 -46 32 95 94 c93 92 123 132 123 164 0 20 -6 19 -42 -6 -30 -21 -93
-29 -117 -15 -8 5 10 35 52 89 81 105 235 335 276 412 18 33 36 64 42 70 34
34 -44 10 -87 -27 -11 -10 -24 -18 -28 -18 -4 0 -19 -9 -33 -20 -14 -11 -34
-20 -44 -20 -9 0 -51 -23 -92 -50 -42 -28 -99 -61 -129 -73 -52 -23 -56 -23
-178 -11 -69 7 -153 13 -187 13 -34 1 -86 9 -115 20 -29 10 -107 35 -173 56
-150 46 -240 88 -352 161 -132 85 -349 273 -519 446 -126 130 -158 158 -199
171 -27 10 -61 17 -76 17 -29 0 -55 -23 -44 -40 3 -5 2 -10 -4 -10 -11 0 -107
-119 -133 -165 -10 -18 -32 -36 -55 -45 -21 -8 -39 -18 -41 -22 -2 -4 -13 -8
-23 -8 -11 0 -17 -4 -14 -10 8 -13 -8 -13 -23 0 -6 6 -10 7 -7 3 3 -3 -4 -13
-15 -20 -11 -8 -18 -18 -15 -23 3 -5 -6 -12 -20 -16 -13 -3 -23 -10 -20 -14 3
-5 1 -11 -5 -15 -18 -11 -11 10 35 110 25 54 59 114 75 132 31 34 40 60 18 47
-7 -4 -1 6 15 23 28 30 37 60 15 47 -7 -4 -5 2 5 13 10 12 14 23 9 27 -5 3
-24 -14 -43 -37z m453 -177 c112 -123 318 -325 398 -392 67 -56 251 -183 305
-210 78 -40 446 -170 556 -197 259 -63 324 -65 423 -16 39 19 71 33 72 32 1
-1 -17 -27 -41 -59 -47 -61 -95 -145 -95 -166 0 -11 -15 -13 -60 -10 -33 1
-60 0 -60 -4 0 -5 0 -12 0 -18 0 -14 68 -47 114 -55 l38 -8 -81 -81 c-63 -63
-92 -85 -133 -99 -56 -20 -163 -68 -399 -178 -80 -38 -154 -70 -165 -72 -10
-2 -34 -11 -53 -21 -47 -25 -248 -31 -381 -11 -99 15 -101 16 -181 77 -189
144 -405 351 -590 566 -49 56 -89 104 -89 106 0 7 31 72 60 126 17 30 35 69
40 86 6 18 26 43 43 57 31 23 47 67 25 67 -5 0 -105 -93 -221 -207 -117 -113
-229 -222 -249 -242 -20 -20 -40 -48 -43 -62 -6 -22 1 -19 56 30 35 31 105 96
156 145 51 49 93 86 93 82 0 -4 -29 -50 -64 -104 -35 -53 -78 -124 -96 -157
-18 -33 -40 -67 -47 -76 -8 -9 -27 -54 -43 -100 -16 -46 -29 -78 -29 -71 -1
19 -29 14 -51 -8 -22 -22 -43 -19 -34 5 3 7 -6 52 -20 98 -14 47 -26 100 -26
119 0 19 -8 43 -19 54 -10 11 -24 45 -30 74 -7 30 -28 97 -47 148 -38 103 -40
119 -20 141 8 9 37 53 64 97 50 82 241 328 249 321 2 -3 -1 -15 -6 -28 -16
-36 -58 -212 -77 -314 -8 -49 -17 -151 -20 -225 -4 -124 -3 -132 10 -95 7 22
19 80 25 129 12 86 14 91 64 150 49 59 110 135 184 230 47 59 175 254 198 301
19 40 96 140 125 162 25 19 81 -19 172 -117z m-346 -1002 c124 -191 272 -342
457 -467 177 -120 201 -133 262 -143 133 -21 432 -9 500 22 22 9 101 41 175
70 74 29 186 77 249 106 71 34 128 54 150 54 20 0 56 9 80 20 24 11 45 20 46
20 9 0 95 -140 95 -154 0 -9 -7 -30 -15 -46 -13 -25 -21 -30 -54 -30 -41 0
-126 -32 -115 -43 11 -11 -16 -35 -75 -69 -31 -17 -73 -45 -93 -61 -21 -16
-38 -27 -38 -24 0 2 13 33 29 68 24 53 43 111 45 140 1 3 12 29 25 58 19 38
22 54 13 63 -8 8 -14 5 -20 -13 -6 -13 -32 -53 -58 -88 -27 -34 -74 -101 -104
-146 -30 -46 -74 -110 -96 -142 -23 -32 -53 -81 -68 -110 -28 -53 -78 -97
-185 -162 -60 -36 -75 -35 -145 13 -21 14 -46 26 -54 26 -9 0 -26 9 -38 21
-19 18 -22 18 -28 4 -3 -9 0 -18 9 -21 8 -4 12 -10 10 -15 -9 -13 93 -201 131
-243 19 -20 34 -43 34 -51 0 -12 4 -12 28 1 15 7 34 14 44 14 30 0 152 78 211
134 32 31 62 56 65 56 4 0 33 30 64 68 259 310 413 480 424 469 5 -5 -45 -136
-77 -203 -10 -22 -19 -43 -19 -47 0 -18 -98 -233 -137 -300 -39 -67 -162 -205
-193 -215 -9 -3 4 52 39 172 12 38 19 72 16 74 -24 24 -133 -178 -187 -345
l-20 -62 -66 6 c-70 5 -125 16 -154 28 -44 18 -2 -74 55 -121 l32 -26 -65 6
c-36 4 -99 8 -140 11 -41 2 -102 8 -135 12 -77 10 -263 10 -340 0 -33 -4 -94
-10 -135 -12 -41 -3 -104 -8 -139 -11 l-65 -7 46 44 c60 57 81 127 29 100 -17
-9 -203 -34 -206 -28 -1 1 -14 38 -29 82 -50 147 -147 325 -177 325 -11 0 -6
-26 26 -125 12 -38 25 -83 29 -99 l7 -28 -39 30 c-75 60 -122 115 -172 202
-27 48 -50 91 -50 95 0 4 -11 33 -24 64 -21 46 -74 176 -115 276 -5 11 -16 37
-25 59 -9 21 -15 40 -13 42 11 12 276 -280 387 -426 94 -123 316 -300 378
-300 10 0 30 -7 46 -15 33 -18 39 -19 31 -5 -4 6 11 32 32 58 22 26 55 79 75
117 19 39 40 80 46 93 27 52 30 59 23 71 -5 8 -13 6 -26 -9 -10 -11 -26 -20
-35 -20 -9 0 -36 -13 -61 -29 -75 -50 -82 -49 -193 27 -88 59 -104 74 -132
127 -18 33 -61 101 -96 150 -35 50 -75 108 -88 130 -13 22 -44 64 -68 94 -24
30 -53 72 -65 93 -26 44 -42 49 -34 11 8 -40 72 -214 97 -263 23 -45 23 -45
-51 4 -25 17 -67 44 -94 59 -30 18 -45 33 -41 42 6 17 -68 47 -121 49 -33 1
-37 5 -51 42 l-15 41 63 91 c43 62 75 98 99 110 25 13 47 38 72 83 78 139 123
216 157 267 l35 53 24 -23 c14 -13 54 -67 89 -120z m-899 76 c31 -24 48 -45
119 -154 57 -86 247 -469 241 -485 -3 -7 -2 -15 4 -17 5 -2 36 -75 68 -163 97
-264 111 -297 151 -365 122 -208 122 -211 -24 -71 -49 47 -85 79 -81 71 45
-81 122 -184 166 -222 50 -42 160 -113 236 -152 18 -9 39 -29 47 -44 l15 -27
1 25 c1 21 4 18 21 -18 l19 -44 54 4 53 3 -45 -58 c-25 -32 -52 -62 -60 -66
-8 -4 -13 -25 -14 -49 0 -27 -5 -42 -13 -42 -7 0 -39 -42 -70 -92 -71 -115
-122 -178 -144 -178 -11 0 -13 -3 -4 -8 15 -10 -4 -48 -82 -168 -30 -44 -81
-130 -114 -190 -33 -60 -72 -122 -85 -139 l-25 -30 -1 80 c-1 73 -2 78 -15 61
-8 -11 -15 -32 -15 -47 0 -21 -14 -38 -64 -79 -35 -28 -135 -128 -222 -222
-152 -164 -546 -559 -552 -554 -1 2 19 47 44 102 57 122 109 270 134 383 l18
86 79 70 c123 110 203 191 203 204 0 15 -41 -13 -120 -79 -115 -97 -313 -253
-349 -275 -17 -10 -21 -16 83 138 46 67 114 176 151 242 38 66 79 138 93 160
59 93 92 159 87 173 -4 12 -33 13 -178 8 l-172 -6 95 33 c52 19 179 75 282
125 183 90 356 157 471 182 32 8 60 17 63 22 7 11 -15 32 -60 56 l-37 20 28 6
c15 3 52 8 81 11 28 4 52 9 52 12 0 10 -99 113 -205 213 -55 52 -129 124 -165
160 l-65 65 50 -70 c27 -38 65 -90 84 -114 l36 -45 -75 54 c-41 30 -86 64
-100 76 -14 13 -58 51 -97 84 -40 34 -73 68 -73 76 0 8 -10 19 -22 24 -30 12
-53 38 -119 135 -109 161 -223 377 -269 510 -31 91 -45 221 -33 319 12 102 60
210 116 265 34 32 40 34 134 41 119 9 149 5 190 -26z m3520 20 c44 -5 57 -11
87 -44 50 -55 93 -147 106 -221 33 -206 -16 -387 -180 -674 -113 -196 -195
-310 -236 -325 -13 -5 -24 -16 -24 -24 0 -23 -268 -248 -343 -288 -23 -12 -21
-8 31 67 26 38 8 24 -79 -65 -63 -63 -123 -121 -134 -128 -16 -10 -16 -12 -2
-8 29 9 19 -1 -33 -33 -27 -17 -50 -35 -50 -40 0 -5 24 -12 53 -16 28 -3 65
-9 81 -12 l30 -5 -30 -15 c-74 -39 -83 -68 -21 -78 90 -16 310 -100 495 -190
106 -52 229 -106 275 -121 45 -14 87 -28 92 -30 6 -2 -70 -1 -167 2 -153 5
-179 4 -184 -9 -3 -8 28 -71 74 -148 44 -74 101 -172 127 -219 26 -47 85 -140
131 -207 45 -68 86 -128 90 -134 14 -24 -36 13 -215 158 -220 178 -261 208
-261 192 0 -13 81 -94 205 -205 l80 -71 14 -73 c17 -95 77 -269 136 -394 25
-54 44 -100 42 -102 -4 -5 -440 435 -586 592 -72 78 -158 163 -191 189 -46 37
-60 54 -60 75 0 14 -7 35 -15 46 -13 17 -14 12 -15 -54 0 -52 -4 -72 -12 -70
-6 2 -34 43 -62 91 -28 47 -70 119 -94 159 -23 40 -67 113 -98 162 -40 67 -51
92 -42 98 10 6 9 8 -3 8 -22 0 -73 63 -144 178 -31 50 -63 92 -70 92 -8 0 -13
14 -13 38 -1 29 -9 46 -36 75 -19 20 -44 50 -56 67 l-21 30 51 0 c48 0 52 2
63 30 12 31 27 40 27 18 1 -7 8 0 16 15 8 16 21 26 27 24 58 -21 293 164 361
285 l19 33 -29 -31 c-24 -26 -153 -134 -214 -178 -8 -6 4 11 28 38 23 27 57
77 75 110 19 34 52 94 76 134 23 39 75 163 117 275 98 264 95 257 106 257 5 0
6 5 3 10 -6 10 14 80 26 90 3 3 45 83 93 179 48 96 98 189 111 205 12 17 29
45 38 61 26 52 97 124 130 133 31 9 92 7 204 -4z m-3161 -268 c15 -45 31 -86
35 -92 6 -7 -4 -20 -29 -38 -21 -14 -41 -26 -44 -26 -3 0 -15 21 -26 48 -20
46 -20 48 -1 137 10 50 19 101 20 115 1 16 4 9 10 -19 5 -25 21 -81 35 -125z
m-523 -936 c43 -59 44 -61 35 -108 -5 -28 -5 -89 1 -153 6 -58 7 -152 4 -210
-4 -81 0 -135 17 -242 12 -76 20 -140 18 -141 -2 -2 -79 -36 -173 -76 -158
-67 -335 -155 -335 -166 0 -2 11 -2 25 2 13 3 90 0 170 -6 147 -13 267 -4 318
22 11 6 -3 -22 -35 -69 -30 -43 -87 -133 -128 -200 -73 -119 -75 -122 -105
-116 -16 3 -33 11 -36 16 -4 5 -12 6 -18 2 -7 -4 -20 1 -29 12 -10 10 -40 30
-67 44 -28 14 -54 35 -60 47 -5 12 -15 22 -22 22 -7 0 -13 7 -13 15 0 8 -6 12
-13 9 -8 -3 -18 6 -25 21 -6 14 -17 25 -24 25 -19 0 -73 137 -61 153 5 6 24
50 42 97 18 47 37 94 41 105 75 176 123 295 140 347 12 35 34 83 50 108 15 25
44 79 64 120 64 138 146 318 146 323 0 10 20 57 24 57 2 0 24 -27 49 -60z
m3667 4 c11 -25 20 -56 20 -69 0 -13 11 -36 24 -50 13 -14 40 -58 59 -98 121
-249 164 -341 232 -502 100 -233 112 -270 95 -290 -7 -8 -16 -12 -21 -9 -5 3
-9 -2 -9 -10 0 -9 -7 -16 -15 -16 -8 0 -15 -7 -15 -15 0 -24 -29 -18 -110 24
-41 21 -147 69 -235 106 -88 38 -161 69 -163 71 -2 1 6 65 18 141 18 109 21
161 16 246 -3 59 -1 154 5 210 6 64 6 120 0 151 -9 47 -8 50 32 102 22 30 42
54 44 54 2 0 13 -21 23 -46z m-3477 -211 c23 -15 65 -44 92 -64 28 -20 61 -40
75 -44 33 -10 310 -207 310 -221 0 -1 -34 -9 -75 -19 -41 -9 -77 -20 -80 -26
-4 -5 -15 -9 -26 -9 -10 0 -19 -7 -19 -15 0 -8 9 -15 20 -15 11 0 39 -10 64
-22 l44 -21 -126 -42 c-70 -24 -172 -61 -227 -83 -55 -23 -103 -38 -106 -34
-10 11 -39 240 -39 302 0 66 26 298 35 323 9 22 8 22 58 -10z m3285 -2 c6 -17
16 -99 23 -183 10 -124 10 -172 0 -253 -8 -55 -15 -119 -18 -142 -3 -24 -7
-43 -10 -43 -3 0 -57 21 -121 46 -65 26 -167 64 -229 84 l-112 37 45 21 c24
12 53 22 64 22 11 0 20 4 20 10 0 13 -54 36 -130 55 -36 9 -66 18 -68 20 -2 1
41 36 95 76 54 41 112 84 128 96 17 13 57 36 90 53 33 16 92 52 130 80 39 27
73 50 77 50 3 0 11 -13 16 -29z m-1493 -341 c66 -6 158 -17 205 -25 47 -8 106
-15 132 -15 31 0 59 -8 83 -22 35 -23 36 -24 30 -73 -24 -208 -17 -240 32
-135 15 33 30 60 33 60 4 0 90 -141 99 -163 2 -5 -7 -3 -19 3 -26 14 -93 24
-295 45 -77 8 -160 19 -185 24 -25 6 -157 10 -295 10 -137 0 -270 -4 -295 -10
-25 -5 -108 -16 -185 -24 -200 -21 -269 -31 -293 -44 -12 -7 -22 -9 -22 -7 0
7 78 135 93 154 8 10 17 -2 39 -48 42 -87 52 -79 44 38 -4 53 -10 107 -12 119
-8 32 57 73 115 73 24 0 85 7 135 15 192 33 373 41 561 25z m1634 -550 c50 -8
107 -10 175 -5 56 4 124 9 152 10 l52 3 -11 -29 c-9 -22 -16 -28 -30 -23 -13
4 -17 2 -13 -5 5 -7 -1 -11 -14 -11 -16 0 -20 -5 -16 -15 3 -8 0 -15 -7 -15
-15 0 -51 -26 -80 -57 -11 -13 -27 -23 -34 -23 -7 0 -21 -9 -30 -20 -10 -11
-23 -20 -30 -20 -6 0 -18 -9 -26 -20 -14 -20 -16 -19 -42 27 -15 26 -57 90
-92 141 -35 51 -56 89 -46 84 10 -5 51 -15 92 -22z m-2741 -510 c68 -27 161
-57 210 -66 48 -9 130 -27 182 -40 153 -38 225 -44 533 -45 311 0 369 5 560
50 67 16 145 32 172 36 28 4 95 25 150 47 55 22 118 46 139 54 l39 14 -19 -21
c-30 -34 -111 -82 -209 -123 -49 -21 -148 -66 -220 -100 -119 -57 -207 -87
-457 -155 -101 -27 -205 -27 -306 0 -253 69 -364 106 -440 146 -46 25 -120 60
-166 78 -135 54 -216 97 -260 137 -22 20 -38 37 -35 38 3 0 60 -22 127 -50z"/>
<path d="M587 3659 c-38 -22 -47 -62 -47 -214 0 -107 4 -155 15 -182 8 -19 15
-45 15 -57 0 -54 60 -86 91 -48 18 21 51 103 80 197 41 135 23 262 -41 291
-39 18 -93 24 -113 13z"/>
<path d="M4406 3645 c-11 -8 -28 -15 -38 -15 -13 0 -27 -17 -44 -55 -40 -87
-35 -272 9 -365 27 -55 57 -63 96 -27 14 13 36 29 47 35 12 6 29 28 39 48 35
75 2 355 -47 385 -19 13 -40 10 -62 -6z"/>
</g>
</svg>
